<?xml version="1.0" encoding="utf-8"?>
<!DOCTYPE svg PUBLIC "-//W3C//DTD SVG 1.0//EN" "http://www.w3.org/TR/2001/REC-SVG-20010904/DTD/svg10.dtd">
<svg version="1.0" id="Layer_1" xmlns="http://www.w3.org/2000/svg" xmlns:xlink="http://www.w3.org/1999/xlink" x="0px" y="0px"
	 viewBox="0 -20 540 230" enable-background="new 0 -20 540 230" xml:space="preserve">
<path fill="#CB3837" d="M0,0h540v180H270v30H150v-30H0V0z M30,150h60V60h30v90h30V30H30V150z M180,30v150h60v-30h60V30H180z M240,60
	h30v60h-30V60z M330,30v120h60V60h30v90h30V60h30v90h30V30H330z"/>
<polygon fill="#EEEEEE" points="30,150 90,150 90,60 120,60 120,150 150,150 150,30 30,30 "/>
<path fill="#EEEEEE" d="M180,30v150h60v-30h60V30H180z M270,120h-30V60h30V120z"/>
<polygon fill="#EEEEEE" points="330,30 330,150 390,150 390,60 420,60 420,150 450,150 450,60 480,60 480,150 510,150 510,30 "/>
</svg>
